<?xml version="1.0" encoding="UTF-8"?>
<svg id="_图层_1" data-name="图层 1" xmlns="http://www.w3.org/2000/svg" viewBox="0 0 900 900">
  <defs>
    <style>
      .cls-1 {
        fill: #fff;
      }

      .cls-2 {
        fill: #a31f34;
      }
    </style>
  </defs>
  <rect y="0" width="900" height="900"/>
  <path class="cls-1" d="m450.19,0v900h-247.51c-109,0-197.89-86.03-202.49-193.89V193.9C4.79,86.03,93.68,0,202.68,0h247.51Z"/>
  <path class="cls-2" d="m900,202.68v494.65c0,111.93-90.74,202.67-202.68,202.67h-247.32V0h247.32c111.94,0,202.68,90.74,202.68,202.68Z"/>
  <path d="m697.32,30c46.13,0,89.49,17.96,122.1,50.58,32.61,32.61,50.58,75.98,50.58,122.1v494.65c0,46.12-17.96,89.48-50.58,122.1-32.61,32.61-75.98,50.57-122.1,50.57H202.68c-44.82,0-87.3-17.09-119.61-48.13-32.22-30.95-51.01-72.52-52.91-117.04v-.03s0-.03,0-.03c-.11-2.38-.16-4.88-.16-7.44V202.68c0-2.56.05-5.06.16-7.44v-.03s0-.03,0-.03c1.9-44.53,20.69-86.09,52.91-117.05,32.31-31.04,74.79-48.13,119.61-48.13h494.64m0-30H202.68C93.68,0,4.79,86.03.19,193.9c-.13,2.91-.19,5.84-.19,8.78v494.65c0,2.94.06,5.87.19,8.78,4.6,107.86,93.49,193.89,202.49,193.89h494.64c111.94,0,202.68-90.74,202.68-202.67V202.68C900,90.74,809.26,0,697.32,0h0Z"/>
  <g>
    <path d="m202.68,900h-126.79C34.08,900,.19,866.11.19,824.3v-118.19c4.6,107.86,93.49,193.89,202.49,193.89Z"/>
    <path d="m75.89,0h126.79C93.68,0,4.79,86.03.19,193.9v-118.19C.19,33.9,34.08,0,75.89,0Z"/>
    <path d="m900,75.71v126.97C900,90.74,809.26,0,697.32,0h126.98c41.81,0,75.7,33.9,75.7,75.71Z"/>
    <path d="m900,697.33v126.97c0,41.81-33.89,75.7-75.7,75.7h-126.98c111.94,0,202.68-90.74,202.68-202.67Z"/>
  </g>
  <g>
    <path d="m75.16,885c-1.95,0-3.88-.09-5.79-.27,14.63-17.54,36.61-28.2,59.92-28.2h47.17v-72.37h187.12v-154.99h-131.57v-103.07h-55.55v-36.52h149.84v-88.47h-51.89v-125h-72.4v58.48h-25.55v-155.67h97.95v-57.01h253.61v57.01h100.89c4.83,0,8.75,3.93,8.75,8.76v57.03h56.29v130.84h47.51v28.48h-47.51v116.22h-56.29v151.33c0,4.83-3.92,8.75-8.75,8.75h-127.94v103.83h222.95v72.37h45.7c23.31,0,45.3,10.66,59.92,28.2-1.91.18-3.85.27-5.79.27H75.16Z"/>
    <path d="m513.02,136.91v57.01h109.64v65.79h56.29v245.54h-56.29v160.08h-136.69v133.83h222.95v70.84H191.46v-70.84h187.12v-184.99h-131.57v-103.07h-55.55v-6.52h149.84v-118.47h-51.89v-125h-97.95v-67.19h97.95v-57.01h223.61m30-30h-283.61v57.01h-97.95v185.67h55.55v-58.48h42.4v125h51.89v58.47h-149.84v66.52h55.55v103.07h131.57v124.99h-187.12v72.37h-32.17c-36.81,0-68.62,21.43-83.64,52.5,9.07,3.85,19.04,5.97,29.51,5.97h748.59c10.47,0,20.44-2.12,29.51-5.97-15.02-31.07-46.83-52.5-83.64-52.5h-30.7v-72.37h-222.95v-73.83h112.94c13.12,0,23.75-10.63,23.75-23.75v-136.33h56.29v-116.22h47.51v-58.48h-47.51v-130.84h-56.29v-42.03c0-13.12-10.63-23.76-23.75-23.76h-85.89v-57.01h0Z"/>
  </g>
</svg>