<?xml version="1.0" encoding="UTF-8"?>
<svg id="_图层_1" data-name="图层 1" xmlns="http://www.w3.org/2000/svg" viewBox="0 0 899.81 900.1">
  <defs>
    <style>
      .cls-1 {
        fill: #a31f34;
      }

      .cls-2 {
        fill: #f2f2f2;
      }
    </style>
  </defs>
  <rect class="cls-2" width="450" height="900"/>
  <rect class="cls-1" x="449.81" width="450" height="900"/>
  <g>
    <path d="m70.07,885.02c8.35-9.91,20.21-19.99,36.16-25.07,7.11-2.26,14.64-3.41,22.38-3.41h47.67s0-72.37,0-72.37h187.12v-154.99h-131.57v-103.07h-55.55v-36.52h149.84v-88.47h-51.89v-125h-72.4v58.48h-25.55v-155.67h97.95v-57.01h253.61v57.01h100.89c4.83,0,8.75,3.93,8.75,8.76v57.03h56.29v130.84h47.51v28.48h-47.51v116.22h-56.29v151.33c0,4.83-3.92,8.75-8.75,8.75h-127.94v103.83h222.95v72.37h46.19c7.74,0,15.27,1.15,22.39,3.41,15.96,5.08,27.82,15.16,36.17,25.06H74.97s-4.9.01-4.9.01Z"/>
    <path d="m512.83,136.91v57.01h109.64v65.79h56.29v245.54h-56.29v160.08h-136.69v133.83h222.95v70.84H191.27v-70.84h187.12v-184.99h-131.57v-103.07h-55.55v-6.52h149.84v-118.47h-51.89v-125h-97.95v-67.19h97.95v-57.01h223.61m30-30h-283.61v57.01h-97.95v185.67h55.55v-58.48h42.4v125h51.89v58.47h-149.84v66.52h55.55v103.07h131.57v124.99h-187.12v72.37h-32.17c-.17,0-.34,0-.51,0-7.79,0-17.03.97-26.92,4.12-37.09,11.81-54.61,45.08-59.14,54.45,10.81-.03,21.63-.06,32.44-.1h748.59c10.81,0,21.63,0,32.44,0-4.56-9.38-22.1-42.57-59.15-54.36-9.9-3.15-19.14-4.12-26.93-4.12-.17,0-.33,0-.49,0h-30.7v-72.37h-222.95v-73.83h112.94c13.12,0,23.75-10.63,23.75-23.75v-136.33h56.29v-116.22h47.51v-58.48h-47.51v-130.84h-56.29v-42.03c0-13.12-10.63-23.76-23.75-23.76h-85.89v-57.01h0Z"/>
  </g>
</svg>