<svg xmlns="http://www.w3.org/2000/svg" data-name="图层 1" viewBox="0 0 900 900"><path d="M0 0h900v900H0z"/><path d="M450.19 0v900H202.68C93.68 900 4.79 813.97.19 706.11V193.9C4.79 86.03 93.68 0 202.68 0z" style="fill:#fff"/><path d="M900 202.68v494.65C900 809.26 809.26 900 697.32 900H450V0h247.32C809.26 0 900 90.74 900 202.68" style="fill:#a31f34"/><path d="M697.32 30a171.5 171.5 0 01122.1 50.58A171.6 171.6 0 01870 202.68v494.65c0 46.12-17.96 89.48-50.58 122.1A171.6 171.6 0 01697.32 870H202.68c-44.82 0-87.3-17.09-119.61-48.13a171.8 171.8 0 01-52.91-117.04v-.06q-.16-3.59-.16-7.44V202.68q0-3.86.16-7.44v-.06A171.8 171.8 0 0183.07 78.13 172 172 0 01202.68 30zm0-30H202.68C93.68 0 4.79 86.03.19 193.9q-.2 4.37-.19 8.78v494.65q0 4.41.19 8.78C4.79 813.97 93.68 900 202.68 900h494.64C809.26 900 900 809.26 900 697.33V202.68C900 90.74 809.26 0 697.32 0"/><path d="M202.68 900H75.89a75.7 75.7 0 01-75.7-75.7V706.11C4.79 813.97 93.68 900 202.68 900M75.89 0h126.79C93.68 0 4.79 86.03.19 193.9V75.71A75.7 75.7 0 0175.89 0M900 75.71v126.97C900 90.74 809.26 0 697.32 0H824.3A75.7 75.7 0 01900 75.71m0 621.62V824.3a75.7 75.7 0 01-75.7 75.7H697.32C809.26 900 900 809.26 900 697.33"/><path d="M75.16 885q-2.92 0-5.79-.27a78.4 78.4 0 0159.92-28.2h47.17v-72.37h187.12V629.17H232.01V526.1h-55.55v-36.52H326.3v-88.47h-51.89v-125h-72.4v58.48h-25.55V178.92h97.95v-57.01h253.61v57.01h100.89a8.76 8.76 0 018.75 8.76v57.03h56.29v130.84h47.51v28.48h-47.51v116.22h-56.29v151.33a8.75 8.75 0 01-8.75 8.75H500.97v103.83h222.95v72.37h45.7a78.4 78.4 0 0159.92 28.2q-2.87.27-5.79.27z"/><path d="M513.02 136.91v57.01h109.64v65.79h56.29v245.54h-56.29v160.08H485.97v133.83h222.95V870H191.46v-70.84h187.12V614.17H247.01V511.1h-55.55v-6.52H341.3V386.11h-51.89v-125h-97.95v-67.19h97.95v-57.01zm30-30H259.41v57.01h-97.95v185.67h55.55v-58.48h42.4v125h51.89v58.47H161.46v66.52h55.55v103.07h131.57v124.99H161.46v72.37h-32.17a92.9 92.9 0 00-83.64 52.5A75 75 0 0075.16 900h748.59a75 75 0 0029.51-5.97 92.9 92.9 0 00-83.64-52.5h-30.7v-72.37H515.97v-73.83h112.94a23.75 23.75 0 0023.75-23.75V535.25h56.29V419.03h47.51v-58.48h-47.51V229.71h-56.29v-42.03a23.75 23.75 0 00-23.75-23.76h-85.89z"/></svg>