<svg xmlns="http://www.w3.org/2000/svg" data-name="图层 1" viewBox="0 0 899.81 900.1"><path d="M0 0h450v900H0z" style="fill:#f2f2f2"/><path d="M449.81 0h450v900h-450z" style="fill:#a31f34"/><path d="M70.07 885.02c8.35-9.91 20.21-19.99 36.16-25.07a74 74 0 0122.38-3.41h47.67v-72.37H363.4V629.18H231.83V526.11h-55.55v-36.52h149.84v-88.47h-51.89v-125h-72.4v58.48h-25.55V178.93h97.95v-57.01h253.61v57.01h100.89a8.76 8.76 0 018.75 8.76v57.03h56.29v130.84h47.51v28.48h-47.51v116.22h-56.29v151.33a8.75 8.75 0 01-8.75 8.75H500.79v103.83h222.95v72.37h46.19c7.74 0 15.27 1.15 22.39 3.41 15.96 5.08 27.82 15.16 36.17 25.06H74.97z"/><path d="M512.83 136.91v57.01h109.64v65.79h56.29v245.54h-56.29v160.08H485.78v133.83h222.95V870H191.27v-70.84h187.12V614.17H246.82V511.1h-55.55v-6.52h149.84V386.11h-51.89v-125h-97.95v-67.19h97.95v-57.01zm30-30H259.22v57.01h-97.95v185.67h55.55v-58.48h42.4v125h51.89v58.47H161.27v66.52h55.55v103.07h131.57v124.99H161.27v72.37h-32.68c-7.79 0-17.03.97-26.92 4.12-37.09 11.81-54.61 45.08-59.14 54.45l32.44-.1H856c-4.56-9.38-22.1-42.57-59.15-54.36a89 89 0 00-26.93-4.12h-31.19v-72.37H515.78v-73.83h112.94a23.75 23.75 0 0023.75-23.75V535.24h56.29V419.02h47.51v-58.48h-47.51V229.7h-56.29v-42.03a23.75 23.75 0 00-23.75-23.76h-85.89z"/></svg>